<svg width="60" height="54" viewBox="0 0 60 54" fill="none" xmlns="http://www.w3.org/2000/svg">
<mask id="mask0" mask-type="alpha" maskUnits="userSpaceOnUse" x="0" y="0" width="60" height="54">
<path d="M3 19.5017H11C12.4146 19.501 13.6364 18.6244 13.932 17.3982C16.187 18.1751 18.5809 18.5873 21 18.6153C21.9438 18.6169 22.8322 19.0107 23.4 19.679L26.886 23.8045C27.5751 24.6079 28.6474 25.0806 29.786 25.0828C31.7868 25.0793 33.4066 23.6403 33.406 21.8668C33.4075 21.5214 33.3463 21.1781 33.225 20.85L31.644 16.6465C31.3642 15.909 31.6619 15.0961 32.377 14.6449L34.517 13.2966C35.4623 12.7004 36.7101 12.639 37.724 13.1388L37.735 13.1442H37.741L53.406 20.9927C55.0883 21.8371 57.2192 21.4087 58.3259 20.0035C59.4326 18.5983 59.152 16.6775 57.678 15.5686L54.551 13.2133L56.208 13.2966H56.395C58.1916 13.2906 59.7105 12.1159 59.961 10.5389C59.961 10.5256 59.961 10.5114 59.966 10.4972C60.2206 8.76623 58.8511 7.17766 56.9 6.94084L56.275 6.86372C57.0988 5.90067 57.234 4.60643 56.6236 3.52569C56.0133 2.44494 54.7634 1.76533 53.4 1.77288H13.816C13.3937 0.714161 12.2668 0.00465505 11 0H3C1.34315 0 0 1.19062 0 2.65933V16.8424C0 18.3111 1.34315 19.5017 3 19.5017ZM56.649 19.0301C56.1207 19.6516 55.1552 19.8308 54.39 19.4494L38.722 11.6L34.641 9.55585C33.7393 9.10351 32.7211 8.86534 31.685 8.86442H31C30.4477 8.86442 30 9.26129 30 9.75086C30 10.2404 30.4477 10.6373 31 10.6373H31.685C32.3748 10.6374 33.0529 10.7959 33.653 11.0974L34.269 11.4058C33.9469 11.5239 33.6401 11.6725 33.354 11.8491L31.215 13.208C29.7846 14.111 29.1899 15.7378 29.751 17.2129L31.331 21.4147C31.3851 21.5617 31.4118 21.7156 31.41 21.8703C31.4099 22.4912 30.962 23.0425 30.2977 23.2395C29.6335 23.4364 28.9015 23.2349 28.48 22.739L25 18.6153C24.0536 17.5015 22.573 16.8453 21 16.8424C20.955 16.8424 16.746 16.8185 14 15.456V3.54577H36.427C37.8506 3.54627 39.2278 3.99487 40.313 4.81161L56.382 16.9195C57.0851 17.4505 57.2019 18.3743 56.649 19.0301ZM57.671 9.23495C57.9299 9.53644 58.0412 9.9175 57.98 10.2925V10.3324C57.8432 11.0444 57.1301 11.555 56.316 11.5237L52.028 11.3101L46.975 7.50462L52.662 8.20845L52.71 8.21377L56.627 8.69777C57.0423 8.74519 57.4186 8.93881 57.671 9.23495ZM55 4.97294C54.9955 5.70726 54.3612 6.31788 53.536 6.38238L52.83 6.43557L44.13 5.36032L41.721 3.54577H53.4C53.8261 3.54576 54.2346 3.69641 54.5349 3.96431C54.8353 4.23221 55.0027 4.59525 55 4.97294ZM2 2.65933C2 2.16976 2.44772 1.77288 3 1.77288H11C11.5523 1.77288 12 2.16976 12 2.65933V16.8424C12 17.332 11.5523 17.7288 11 17.7288H3C2.44772 17.7288 2 17.332 2 16.8424V2.65933Z" fill="black"/>
<path d="M6.99902 8.86389C8.65588 8.86389 9.99902 7.6732 9.99902 6.20441C9.99902 4.73561 8.65588 3.54492 6.99902 3.54492C5.34217 3.54492 3.99902 4.73561 3.99902 6.20441C3.99902 7.6732 5.34217 8.86389 6.99902 8.86389ZM6.99902 5.31791C7.55131 5.31791 7.99902 5.71481 7.99902 6.20441C7.99902 6.694 7.55131 7.0909 6.99902 7.0909C6.44674 7.0909 5.99902 6.694 5.99902 6.20441C5.99902 5.71481 6.44674 5.31791 6.99902 5.31791Z" fill="black"/>
<path d="M44.9997 23.5624C44.9997 21.7674 43.5617 19.7294 42.3547 18.3324C42.0259 17.9668 41.5271 17.7539 40.9997 17.7539C40.4723 17.7539 39.9735 17.9668 39.6447 18.3324C38.4377 19.7294 36.9997 21.7674 36.9997 23.5624C36.8925 25.6205 38.6788 27.3698 40.9997 27.4796C43.3207 27.3698 45.1069 25.6205 44.9997 23.5624ZM38.9997 23.5624C39.239 22.129 39.9326 20.7854 40.9997 19.6878C42.0668 20.7854 42.7604 22.129 42.9997 23.5624C43.1027 24.6406 42.2137 25.5938 40.9997 25.7067C39.7857 25.5938 38.8967 24.6406 38.9997 23.5624Z" fill="black"/>
<path d="M33.6457 28.0861C32.4387 29.4797 31.0007 31.5176 31.0007 33.3127C30.8935 35.3709 32.6797 37.1201 35.0007 37.23C37.3216 37.1201 39.1078 35.3709 39.0007 33.3127C39.0007 31.5176 37.5627 29.4797 36.3557 28.0826C36.0262 27.7174 35.5272 27.5052 34.9997 27.5059C34.4723 27.5066 33.9739 27.7201 33.6457 28.0861ZM35.0007 35.4571C33.7866 35.3441 32.8976 34.391 33.0007 33.3127C33.24 31.8793 33.9336 30.5356 35.0007 29.438C36.0678 30.5356 36.7614 31.8793 37.0007 33.3127C37.1037 34.391 36.2147 35.3441 35.0007 35.4571Z" fill="black"/>
<path d="M45.0007 39.8896C47.3216 39.7798 49.1078 38.0306 49.0007 35.9725C49.0007 34.1775 47.5627 32.1396 46.3557 30.7425C46.0269 30.377 45.5281 30.1641 45.0007 30.1641C44.4732 30.1641 43.9745 30.377 43.6457 30.7425C42.4387 32.1396 41.0007 34.1775 41.0007 35.9725C40.8935 38.0306 42.6797 39.7798 45.0007 39.8896ZM45.0007 32.0979C46.0678 33.1955 46.7614 34.5391 47.0007 35.9725C47.1037 37.0507 46.2147 38.0038 45.0007 38.1168C43.7866 38.0038 42.8976 37.0507 43.0007 35.9725C43.24 34.5391 43.9336 33.1955 45.0007 32.0979Z" fill="black"/>
<path d="M58.249 44.2774C57.5557 44.1771 56.8985 43.9342 56.33 43.5683C54.084 42.2071 51.126 42.2071 48.88 43.5683C47.2798 44.5712 45.1402 44.5712 43.54 43.5683C41.2905 42.2079 38.3305 42.2079 36.081 43.5683C34.477 44.5718 32.334 44.5718 30.73 43.5683C29.6424 42.8821 28.3346 42.5244 27 42.548H2C0.89543 42.548 0 43.3417 0 44.3209V51.4124C0 52.3916 0.89543 53.1853 2 53.1853H58C59.1046 53.1853 60 52.3916 60 51.4124V46.0344C59.9988 45.1414 59.2485 44.3886 58.249 44.2774ZM58 51.4124H2V44.3209H27C27.9597 44.3002 28.8996 44.5648 29.67 45.0726C31.9231 46.4341 34.8869 46.4341 37.14 45.0726C38.7401 44.0703 40.8789 44.0703 42.479 45.0726C44.729 46.4348 47.691 46.4348 49.941 45.0726C51.5376 44.0708 53.6734 44.0708 55.27 45.0726C56.0848 45.5769 57.0183 45.9104 58 46.0477V51.4124Z" fill="black"/>
<path d="M8.99902 46.0938H4.99902C4.44674 46.0938 3.99902 46.4906 3.99902 46.9802C3.99902 47.4698 4.44674 47.8667 4.99902 47.8667H8.99902C9.55131 47.8667 9.99902 47.4698 9.99902 46.9802C9.99902 46.4906 9.55131 46.0938 8.99902 46.0938Z" fill="black"/>
<path d="M18 47.8672H13C12.4477 47.8672 12 48.2642 12 48.7538C12 49.2435 12.4477 49.6405 13 49.6405H18C18.5523 49.6405 19 49.2435 19 48.7538C19 48.2642 18.5523 47.8672 18 47.8672Z" fill="black"/>
<path d="M27 46.0938H22C21.4477 46.0938 21 46.4906 21 46.9802C21 47.4698 21.4477 47.8667 22 47.8667H27C27.5523 47.8667 28 47.4698 28 46.9802C28 46.4906 27.5523 46.0938 27 46.0938Z" fill="black"/>
<path d="M37 47.8672H32C31.4477 47.8672 31 48.2642 31 48.7538C31 49.2435 31.4477 49.6405 32 49.6405H37C37.5523 49.6405 38 49.2435 38 48.7538C38 48.2642 37.5523 47.8672 37 47.8672Z" fill="black"/>
<path d="M48.999 47.8672H43.999C43.4467 47.8672 42.999 48.2642 42.999 48.7538C42.999 49.2435 43.4467 49.6405 43.999 49.6405H48.999C49.5513 49.6405 49.999 49.2435 49.999 48.7538C49.999 48.2642 49.5513 47.8672 48.999 47.8672Z" fill="black"/>
</mask>
<g mask="url(#mask0)">
<path d="M3 19.5017H11C12.4146 19.501 13.6364 18.6244 13.932 17.3982C16.187 18.1751 18.5809 18.5873 21 18.6153C21.9438 18.6169 22.8322 19.0107 23.4 19.679L26.886 23.8045C27.5751 24.6079 28.6474 25.0806 29.786 25.0828C31.7868 25.0793 33.4066 23.6403 33.406 21.8668C33.4075 21.5214 33.3463 21.1781 33.225 20.85L31.644 16.6465C31.3642 15.909 31.6619 15.0961 32.377 14.6449L34.517 13.2966C35.4623 12.7004 36.7101 12.639 37.724 13.1388L37.735 13.1442H37.741L53.406 20.9927C55.0883 21.8371 57.2192 21.4087 58.3259 20.0035C59.4326 18.5983 59.152 16.6775 57.678 15.5686L54.551 13.2133L56.208 13.2966H56.395C58.1916 13.2906 59.7105 12.1159 59.961 10.5389C59.961 10.5256 59.961 10.5114 59.966 10.4972C60.2206 8.76623 58.8511 7.17766 56.9 6.94084L56.275 6.86372C57.0988 5.90067 57.234 4.60643 56.6236 3.52569C56.0133 2.44494 54.7634 1.76533 53.4 1.77288H13.816C13.3937 0.714161 12.2668 0.00465505 11 0H3C1.34315 0 0 1.19062 0 2.65933V16.8424C0 18.3111 1.34315 19.5017 3 19.5017ZM56.649 19.0301C56.1207 19.6516 55.1552 19.8308 54.39 19.4494L38.722 11.6L34.641 9.55585C33.7393 9.10351 32.7211 8.86534 31.685 8.86442H31C30.4477 8.86442 30 9.26129 30 9.75086C30 10.2404 30.4477 10.6373 31 10.6373H31.685C32.3748 10.6374 33.0529 10.7959 33.653 11.0974L34.269 11.4058C33.9469 11.5239 33.6401 11.6725 33.354 11.8491L31.215 13.208C29.7846 14.111 29.1899 15.7378 29.751 17.2129L31.331 21.4147C31.3851 21.5617 31.4118 21.7156 31.41 21.8703C31.4099 22.4912 30.962 23.0425 30.2977 23.2395C29.6335 23.4364 28.9015 23.2349 28.48 22.739L25 18.6153C24.0536 17.5015 22.573 16.8453 21 16.8424C20.955 16.8424 16.746 16.8185 14 15.456V3.54577H36.427C37.8506 3.54627 39.2278 3.99487 40.313 4.81161L56.382 16.9195C57.0851 17.4505 57.2019 18.3743 56.649 19.0301ZM57.671 9.23495C57.9299 9.53644 58.0412 9.9175 57.98 10.2925V10.3324C57.8432 11.0444 57.1301 11.555 56.316 11.5237L52.028 11.3101L46.975 7.50462L52.662 8.20845L52.71 8.21377L56.627 8.69777C57.0423 8.74519 57.4186 8.93881 57.671 9.23495ZM55 4.97294C54.9955 5.70726 54.3612 6.31788 53.536 6.38238L52.83 6.43557L44.13 5.36032L41.721 3.54577H53.4C53.8261 3.54576 54.2346 3.69641 54.5349 3.96431C54.8353 4.23221 55.0027 4.59525 55 4.97294ZM2 2.65933C2 2.16976 2.44772 1.77288 3 1.77288H11C11.5523 1.77288 12 2.16976 12 2.65933V16.8424C12 17.332 11.5523 17.7288 11 17.7288H3C2.44772 17.7288 2 17.332 2 16.8424V2.65933Z" fill="black"/>
<path d="M3 19.5017H11C12.4146 19.501 13.6364 18.6244 13.932 17.3982C16.187 18.1751 18.5809 18.5873 21 18.6153C21.9438 18.6169 22.8322 19.0107 23.4 19.679L26.886 23.8045C27.5751 24.6079 28.6474 25.0806 29.786 25.0828C31.7868 25.0793 33.4066 23.6403 33.406 21.8668C33.4075 21.5214 33.3463 21.1781 33.225 20.85L31.644 16.6465C31.3642 15.909 31.6619 15.0961 32.377 14.6449L34.517 13.2966C35.4623 12.7004 36.7101 12.639 37.724 13.1388L37.735 13.1442H37.741L53.406 20.9927C55.0883 21.8371 57.2192 21.4087 58.3259 20.0035C59.4326 18.5983 59.152 16.6775 57.678 15.5686L54.551 13.2133L56.208 13.2966H56.395C58.1916 13.2906 59.7105 12.1159 59.961 10.5389C59.961 10.5256 59.961 10.5114 59.966 10.4972C60.2206 8.76623 58.8511 7.17766 56.9 6.94084L56.275 6.86372C57.0988 5.90067 57.234 4.60643 56.6236 3.52569C56.0133 2.44494 54.7634 1.76533 53.4 1.77288H13.816C13.3937 0.714161 12.2668 0.00465505 11 0H3C1.34315 0 0 1.19062 0 2.65933V16.8424C0 18.3111 1.34315 19.5017 3 19.5017ZM56.649 19.0301C56.1207 19.6516 55.1552 19.8308 54.39 19.4494L38.722 11.6L34.641 9.55585C33.7393 9.10351 32.7211 8.86534 31.685 8.86442H31C30.4477 8.86442 30 9.26129 30 9.75086C30 10.2404 30.4477 10.6373 31 10.6373H31.685C32.3748 10.6374 33.0529 10.7959 33.653 11.0974L34.269 11.4058C33.9469 11.5239 33.6401 11.6725 33.354 11.8491L31.215 13.208C29.7846 14.111 29.1899 15.7378 29.751 17.2129L31.331 21.4147C31.3851 21.5617 31.4118 21.7156 31.41 21.8703C31.4099 22.4912 30.962 23.0425 30.2977 23.2395C29.6335 23.4364 28.9015 23.2349 28.48 22.739L25 18.6153C24.0536 17.5015 22.573 16.8453 21 16.8424C20.955 16.8424 16.746 16.8185 14 15.456V3.54577H36.427C37.8506 3.54627 39.2278 3.99487 40.313 4.81161L56.382 16.9195C57.0851 17.4505 57.2019 18.3743 56.649 19.0301ZM57.671 9.23495C57.9299 9.53644 58.0412 9.9175 57.98 10.2925V10.3324C57.8432 11.0444 57.1301 11.555 56.316 11.5237L52.028 11.3101L46.975 7.50462L52.662 8.20845L52.71 8.21377L56.627 8.69777C57.0423 8.74519 57.4186 8.93881 57.671 9.23495ZM55 4.97294C54.9955 5.70726 54.3612 6.31788 53.536 6.38238L52.83 6.43557L44.13 5.36032L41.721 3.54577H53.4C53.8261 3.54576 54.2346 3.69641 54.5349 3.96431C54.8353 4.23221 55.0027 4.59525 55 4.97294ZM2 2.65933C2 2.16976 2.44772 1.77288 3 1.77288H11C11.5523 1.77288 12 2.16976 12 2.65933V16.8424C12 17.332 11.5523 17.7288 11 17.7288H3C2.44772 17.7288 2 17.332 2 16.8424V2.65933Z" fill="#0099FF"/>
<path d="M6.99902 8.86389C8.65588 8.86389 9.99902 7.6732 9.99902 6.20441C9.99902 4.73561 8.65588 3.54492 6.99902 3.54492C5.34217 3.54492 3.99902 4.73561 3.99902 6.20441C3.99902 7.6732 5.34217 8.86389 6.99902 8.86389ZM6.99902 5.31791C7.55131 5.31791 7.99902 5.71481 7.99902 6.20441C7.99902 6.694 7.55131 7.0909 6.99902 7.0909C6.44674 7.0909 5.99902 6.694 5.99902 6.20441C5.99902 5.71481 6.44674 5.31791 6.99902 5.31791Z" fill="black"/>
<path d="M6.99902 8.86389C8.65588 8.86389 9.99902 7.6732 9.99902 6.20441C9.99902 4.73561 8.65588 3.54492 6.99902 3.54492C5.34217 3.54492 3.99902 4.73561 3.99902 6.20441C3.99902 7.6732 5.34217 8.86389 6.99902 8.86389ZM6.99902 5.31791C7.55131 5.31791 7.99902 5.71481 7.99902 6.20441C7.99902 6.694 7.55131 7.0909 6.99902 7.0909C6.44674 7.0909 5.99902 6.694 5.99902 6.20441C5.99902 5.71481 6.44674 5.31791 6.99902 5.31791Z" fill="#0099FF"/>
<path d="M44.9997 23.5624C44.9997 21.7674 43.5617 19.7294 42.3547 18.3324C42.0259 17.9668 41.5271 17.7539 40.9997 17.7539C40.4723 17.7539 39.9735 17.9668 39.6447 18.3324C38.4377 19.7294 36.9997 21.7674 36.9997 23.5624C36.8925 25.6205 38.6788 27.3698 40.9997 27.4796C43.3207 27.3698 45.1069 25.6205 44.9997 23.5624ZM38.9997 23.5624C39.239 22.129 39.9326 20.7854 40.9997 19.6878C42.0668 20.7854 42.7604 22.129 42.9997 23.5624C43.1027 24.6406 42.2137 25.5938 40.9997 25.7067C39.7857 25.5938 38.8967 24.6406 38.9997 23.5624Z" fill="black"/>
<path d="M44.9997 23.5624C44.9997 21.7674 43.5617 19.7294 42.3547 18.3324C42.0259 17.9668 41.5271 17.7539 40.9997 17.7539C40.4723 17.7539 39.9735 17.9668 39.6447 18.3324C38.4377 19.7294 36.9997 21.7674 36.9997 23.5624C36.8925 25.6205 38.6788 27.3698 40.9997 27.4796C43.3207 27.3698 45.1069 25.6205 44.9997 23.5624ZM38.9997 23.5624C39.239 22.129 39.9326 20.7854 40.9997 19.6878C42.0668 20.7854 42.7604 22.129 42.9997 23.5624C43.1027 24.6406 42.2137 25.5938 40.9997 25.7067C39.7857 25.5938 38.8967 24.6406 38.9997 23.5624Z" fill="#0099FF"/>
<path d="M33.6457 28.0861C32.4387 29.4797 31.0007 31.5176 31.0007 33.3127C30.8935 35.3709 32.6797 37.1201 35.0007 37.23C37.3216 37.1201 39.1078 35.3709 39.0007 33.3127C39.0007 31.5176 37.5627 29.4797 36.3557 28.0826C36.0262 27.7174 35.5272 27.5052 34.9997 27.5059C34.4723 27.5066 33.9739 27.7201 33.6457 28.0861ZM35.0007 35.4571C33.7866 35.3441 32.8976 34.391 33.0007 33.3127C33.24 31.8793 33.9336 30.5356 35.0007 29.438C36.0678 30.5356 36.7614 31.8793 37.0007 33.3127C37.1037 34.391 36.2147 35.3441 35.0007 35.4571Z" fill="black"/>
<path d="M33.6457 28.0861C32.4387 29.4797 31.0007 31.5176 31.0007 33.3127C30.8935 35.3709 32.6797 37.1201 35.0007 37.23C37.3216 37.1201 39.1078 35.3709 39.0007 33.3127C39.0007 31.5176 37.5627 29.4797 36.3557 28.0826C36.0262 27.7174 35.5272 27.5052 34.9997 27.5059C34.4723 27.5066 33.9739 27.7201 33.6457 28.0861ZM35.0007 35.4571C33.7866 35.3441 32.8976 34.391 33.0007 33.3127C33.24 31.8793 33.9336 30.5356 35.0007 29.438C36.0678 30.5356 36.7614 31.8793 37.0007 33.3127C37.1037 34.391 36.2147 35.3441 35.0007 35.4571Z" fill="#0099FF"/>
<path d="M45.0007 39.8896C47.3216 39.7798 49.1078 38.0306 49.0007 35.9725C49.0007 34.1775 47.5627 32.1396 46.3557 30.7425C46.0269 30.377 45.5281 30.1641 45.0007 30.1641C44.4732 30.1641 43.9745 30.377 43.6457 30.7425C42.4387 32.1396 41.0007 34.1775 41.0007 35.9725C40.8935 38.0306 42.6797 39.7798 45.0007 39.8896ZM45.0007 32.0979C46.0678 33.1955 46.7614 34.5391 47.0007 35.9725C47.1037 37.0507 46.2147 38.0038 45.0007 38.1168C43.7866 38.0038 42.8976 37.0507 43.0007 35.9725C43.24 34.5391 43.9336 33.1955 45.0007 32.0979Z" fill="black"/>
<path d="M45.0007 39.8896C47.3216 39.7798 49.1078 38.0306 49.0007 35.9725C49.0007 34.1775 47.5627 32.1396 46.3557 30.7425C46.0269 30.377 45.5281 30.1641 45.0007 30.1641C44.4732 30.1641 43.9745 30.377 43.6457 30.7425C42.4387 32.1396 41.0007 34.1775 41.0007 35.9725C40.8935 38.0306 42.6797 39.7798 45.0007 39.8896ZM45.0007 32.0979C46.0678 33.1955 46.7614 34.5391 47.0007 35.9725C47.1037 37.0507 46.2147 38.0038 45.0007 38.1168C43.7866 38.0038 42.8976 37.0507 43.0007 35.9725C43.24 34.5391 43.9336 33.1955 45.0007 32.0979Z" fill="#0099FF"/>
<path d="M58.249 44.2774C57.5557 44.1771 56.8985 43.9342 56.33 43.5683C54.084 42.2071 51.126 42.2071 48.88 43.5683C47.2798 44.5712 45.1402 44.5712 43.54 43.5683C41.2905 42.2079 38.3305 42.2079 36.081 43.5683C34.477 44.5718 32.334 44.5718 30.73 43.5683C29.6424 42.8821 28.3346 42.5244 27 42.548H2C0.89543 42.548 0 43.3417 0 44.3209V51.4124C0 52.3916 0.89543 53.1853 2 53.1853H58C59.1046 53.1853 60 52.3916 60 51.4124V46.0344C59.9988 45.1414 59.2485 44.3886 58.249 44.2774ZM58 51.4124H2V44.3209H27C27.9597 44.3002 28.8996 44.5648 29.67 45.0726C31.9231 46.4341 34.8869 46.4341 37.14 45.0726C38.7401 44.0703 40.8789 44.0703 42.479 45.0726C44.729 46.4348 47.691 46.4348 49.941 45.0726C51.5376 44.0708 53.6734 44.0708 55.27 45.0726C56.0848 45.5769 57.0183 45.9104 58 46.0477V51.4124Z" fill="black"/>
<path d="M58.249 44.2774C57.5557 44.1771 56.8985 43.9342 56.33 43.5683C54.084 42.2071 51.126 42.2071 48.88 43.5683C47.2798 44.5712 45.1402 44.5712 43.54 43.5683C41.2905 42.2079 38.3305 42.2079 36.081 43.5683C34.477 44.5718 32.334 44.5718 30.73 43.5683C29.6424 42.8821 28.3346 42.5244 27 42.548H2C0.89543 42.548 0 43.3417 0 44.3209V51.4124C0 52.3916 0.89543 53.1853 2 53.1853H58C59.1046 53.1853 60 52.3916 60 51.4124V46.0344C59.9988 45.1414 59.2485 44.3886 58.249 44.2774ZM58 51.4124H2V44.3209H27C27.9597 44.3002 28.8996 44.5648 29.67 45.0726C31.9231 46.4341 34.8869 46.4341 37.14 45.0726C38.7401 44.0703 40.8789 44.0703 42.479 45.0726C44.729 46.4348 47.691 46.4348 49.941 45.0726C51.5376 44.0708 53.6734 44.0708 55.27 45.0726C56.0848 45.5769 57.0183 45.9104 58 46.0477V51.4124Z" fill="#0099FF"/>
<path d="M8.99902 46.0938H4.99902C4.44674 46.0938 3.99902 46.4906 3.99902 46.9802C3.99902 47.4698 4.44674 47.8667 4.99902 47.8667H8.99902C9.55131 47.8667 9.99902 47.4698 9.99902 46.9802C9.99902 46.4906 9.55131 46.0938 8.99902 46.0938Z" fill="black"/>
<path d="M8.99902 46.0938H4.99902C4.44674 46.0938 3.99902 46.4906 3.99902 46.9802C3.99902 47.4698 4.44674 47.8667 4.99902 47.8667H8.99902C9.55131 47.8667 9.99902 47.4698 9.99902 46.9802C9.99902 46.4906 9.55131 46.0938 8.99902 46.0938Z" fill="#0099FF"/>
<path d="M18 47.8672H13C12.4477 47.8672 12 48.2642 12 48.7538C12 49.2435 12.4477 49.6405 13 49.6405H18C18.5523 49.6405 19 49.2435 19 48.7538C19 48.2642 18.5523 47.8672 18 47.8672Z" fill="black"/>
<path d="M18 47.8672H13C12.4477 47.8672 12 48.2642 12 48.7538C12 49.2435 12.4477 49.6405 13 49.6405H18C18.5523 49.6405 19 49.2435 19 48.7538C19 48.2642 18.5523 47.8672 18 47.8672Z" fill="#0099FF"/>
<path d="M27 46.0938H22C21.4477 46.0938 21 46.4906 21 46.9802C21 47.4698 21.4477 47.8667 22 47.8667H27C27.5523 47.8667 28 47.4698 28 46.9802C28 46.4906 27.5523 46.0938 27 46.0938Z" fill="black"/>
<path d="M27 46.0938H22C21.4477 46.0938 21 46.4906 21 46.9802C21 47.4698 21.4477 47.8667 22 47.8667H27C27.5523 47.8667 28 47.4698 28 46.9802C28 46.4906 27.5523 46.0938 27 46.0938Z" fill="#0099FF"/>
<path d="M37 47.8672H32C31.4477 47.8672 31 48.2642 31 48.7538C31 49.2435 31.4477 49.6405 32 49.6405H37C37.5523 49.6405 38 49.2435 38 48.7538C38 48.2642 37.5523 47.8672 37 47.8672Z" fill="black"/>
<path d="M37 47.8672H32C31.4477 47.8672 31 48.2642 31 48.7538C31 49.2435 31.4477 49.6405 32 49.6405H37C37.5523 49.6405 38 49.2435 38 48.7538C38 48.2642 37.5523 47.8672 37 47.8672Z" fill="#0099FF"/>
<path d="M48.999 47.8672H43.999C43.4467 47.8672 42.999 48.2642 42.999 48.7538C42.999 49.2435 43.4467 49.6405 43.999 49.6405H48.999C49.5513 49.6405 49.999 49.2435 49.999 48.7538C49.999 48.2642 49.5513 47.8672 48.999 47.8672Z" fill="black"/>
<path d="M48.999 47.8672H43.999C43.4467 47.8672 42.999 48.2642 42.999 48.7538C42.999 49.2435 43.4467 49.6405 43.999 49.6405H48.999C49.5513 49.6405 49.999 49.2435 49.999 48.7538C49.999 48.2642 49.5513 47.8672 48.999 47.8672Z" fill="#0099FF"/>
</g>
</svg>
