<svg width="60" height="54" fill="none" xmlns="http://www.w3.org/2000/svg"><mask id="mask0" maskUnits="userSpaceOnUse" x="0" y="0" width="60" height="54"><path d="M3 19.502h8c1.415-.001 2.636-.878 2.932-2.104A22.53 22.53 0 0021 18.615c.944.002 1.832.396 2.4 1.064l3.486 4.126c.69.803 1.761 1.276 2.9 1.278 2-.004 3.62-1.443 3.62-3.216a2.892 2.892 0 00-.181-1.017l-1.581-4.204c-.28-.737.018-1.55.733-2.001l2.14-1.348a3.336 3.336 0 013.207-.158l.011.005h.006l15.665 7.849c1.682.844 3.813.416 4.92-.99 1.107-1.405.826-3.326-.648-4.434l-3.127-2.356 1.657.084h.187c1.797-.006 3.316-1.181 3.566-2.758 0-.013 0-.028.005-.042.255-1.73-1.115-3.32-3.066-3.556l-.625-.077c.824-.963.959-2.258.349-3.338-.61-1.081-1.86-1.76-3.224-1.753H13.816C13.394.714 12.266.005 11 0H3C1.343 0 0 1.19 0 2.66v14.182c0 1.47 1.343 2.66 3 2.66zm53.649-.472c-.528.622-1.494.8-2.259.42L38.722 11.6l-4.081-2.044a6.622 6.622 0 00-2.956-.692H31c-.552 0-1 .397-1 .887s.448.886 1 .886h.685a4.4 4.4 0 011.968.46l.616.309a5.055 5.055 0 00-.915.443l-2.139 1.359c-1.43.903-2.025 2.53-1.464 4.005l1.58 4.202c.054.147.08.3.079.455 0 .621-.448 1.172-1.112 1.37-.664.196-1.396-.005-1.818-.501L25 18.615c-.946-1.113-2.427-1.77-4-1.773-.045 0-4.254-.023-7-1.386V3.546h22.427c1.424 0 2.8.449 3.886 1.266l16.069 12.107c.703.532.82 1.455.267 2.111zm1.022-9.795c.259.301.37.683.309 1.058v.04c-.137.711-.85 1.222-1.664 1.19l-4.288-.213-5.053-3.805 5.687.703.048.006 3.917.484c.415.047.792.24 1.044.537zM55 4.973c-.005.734-.639 1.345-1.464 1.41l-.706.053-8.7-1.076-2.409-1.814H53.4c.426 0 .835.15 1.135.418.3.268.468.631.465 1.009zM2 2.659c0-.49.448-.886 1-.886h8c.552 0 1 .397 1 .886v14.183c0 .49-.448.887-1 .887H3c-.552 0-1-.397-1-.887V2.66z" fill="#000"/><path d="M6.999 8.864c1.657 0 3-1.19 3-2.66 0-1.468-1.343-2.66-3-2.66s-3 1.192-3 2.66c0 1.47 1.343 2.66 3 2.66zm0-3.546c.552 0 1 .397 1 .886 0 .49-.448.887-1 .887s-1-.397-1-.887.448-.886 1-.886zM45 23.562c0-1.795-1.438-3.833-2.645-5.23A1.824 1.824 0 0041 17.754c-.528 0-1.026.213-1.355.578C38.438 19.73 37 21.767 37 23.562c-.108 2.058 1.679 3.808 4 3.918 2.32-.11 4.107-1.86 4-3.918zm-6 0c.239-1.433.933-2.777 2-3.874 1.067 1.097 1.76 2.441 2 3.874.103 1.079-.786 2.032-2 2.145-1.214-.113-2.103-1.066-2-2.145zm-5.354 4.524C32.439 29.48 31 31.518 31 33.313c-.108 2.058 1.679 3.807 4 3.917 2.32-.11 4.107-1.86 4-3.917 0-1.795-1.438-3.833-2.645-5.23A1.824 1.824 0 0035 27.506a1.82 1.82 0 00-1.354.58zM35 35.457c-1.214-.113-2.103-1.066-2-2.144.239-1.434.933-2.777 2-3.875 1.067 1.098 1.76 2.441 2 3.875.103 1.078-.786 2.031-2 2.144zm10 4.433c2.322-.11 4.108-1.86 4-3.918 0-1.794-1.437-3.832-2.644-5.23A1.824 1.824 0 0045 30.165c-.528 0-1.026.213-1.355.578C42.439 32.14 41 34.178 41 35.972c-.107 2.059 1.679 3.808 4 3.918zm0-7.792c1.068 1.098 1.761 2.441 2 3.874.104 1.079-.785 2.032-2 2.145-1.213-.113-2.102-1.066-2-2.145.24-1.433.934-2.776 2-3.874zm13.249 12.179a4.826 4.826 0 01-1.919-.709c-2.246-1.36-5.204-1.36-7.45 0-1.6 1.003-3.74 1.003-5.34 0-2.25-1.36-5.21-1.36-7.459 0-1.604 1.004-3.747 1.004-5.351 0a6.788 6.788 0 00-3.73-1.02H2c-1.105 0-2 .794-2 1.773v7.091c0 .98.895 1.773 2 1.773h56c1.105 0 2-.793 2-1.773v-5.378c-.001-.893-.752-1.645-1.751-1.757zM58 51.412H2v-7.091h25c.96-.02 1.9.244 2.67.752 2.253 1.361 5.217 1.361 7.47 0 1.6-1.003 3.739-1.003 5.339 0 2.25 1.362 5.212 1.362 7.462 0 1.597-1.002 3.732-1.002 5.329 0a7.047 7.047 0 002.73.975v5.364z" fill="#000"/><path d="M8.999 46.094h-4c-.552 0-1 .397-1 .886 0 .49.448.887 1 .887h4c.552 0 1-.397 1-.887s-.448-.886-1-.886zM18 47.867h-5c-.552 0-1 .397-1 .887s.448.887 1 .887h5c.552 0 1-.398 1-.887 0-.49-.448-.887-1-.887zm9-1.773h-5c-.552 0-1 .397-1 .886 0 .49.448.887 1 .887h5c.552 0 1-.397 1-.887s-.448-.886-1-.886zm10 1.773h-5c-.552 0-1 .397-1 .887s.448.887 1 .887h5c.552 0 1-.398 1-.887 0-.49-.448-.887-1-.887zm11.999 0h-5c-.552 0-1 .397-1 .887s.448.887 1 .887h5c.552 0 1-.398 1-.887 0-.49-.448-.887-1-.887z" fill="#000"/></mask><g mask="url(#mask0)"><path d="M3 19.502h8c1.415-.001 2.636-.878 2.932-2.104A22.53 22.53 0 0021 18.615c.944.002 1.832.396 2.4 1.064l3.486 4.126c.69.803 1.761 1.276 2.9 1.278 2-.004 3.62-1.443 3.62-3.216a2.892 2.892 0 00-.181-1.017l-1.581-4.204c-.28-.737.018-1.55.733-2.001l2.14-1.348a3.336 3.336 0 013.207-.158l.011.005h.006l15.665 7.849c1.682.844 3.813.416 4.92-.99 1.107-1.405.826-3.326-.648-4.434l-3.127-2.356 1.657.084h.187c1.797-.006 3.316-1.181 3.566-2.758 0-.013 0-.028.005-.042.255-1.73-1.115-3.32-3.066-3.556l-.625-.077c.824-.963.959-2.258.349-3.338-.61-1.081-1.86-1.76-3.224-1.753H13.816C13.394.714 12.266.005 11 0H3C1.343 0 0 1.19 0 2.66v14.182c0 1.47 1.343 2.66 3 2.66zm53.649-.472c-.528.622-1.494.8-2.259.42L38.722 11.6l-4.081-2.044a6.622 6.622 0 00-2.956-.692H31c-.552 0-1 .397-1 .887s.448.886 1 .886h.685a4.4 4.4 0 011.968.46l.616.309a5.055 5.055 0 00-.915.443l-2.139 1.359c-1.43.903-2.025 2.53-1.464 4.005l1.58 4.202c.054.147.08.3.079.455 0 .621-.448 1.172-1.112 1.37-.664.196-1.396-.005-1.818-.501L25 18.615c-.946-1.113-2.427-1.77-4-1.773-.045 0-4.254-.023-7-1.386V3.546h22.427c1.424 0 2.8.449 3.886 1.266l16.069 12.107c.703.532.82 1.455.267 2.111zm1.022-9.795c.259.301.37.683.309 1.058v.04c-.137.711-.85 1.222-1.664 1.19l-4.288-.213-5.053-3.805 5.687.703.048.006 3.917.484c.415.047.792.24 1.044.537zM55 4.973c-.005.734-.639 1.345-1.464 1.41l-.706.053-8.7-1.076-2.409-1.814H53.4c.426 0 .835.15 1.135.418.3.268.468.631.465 1.009zM2 2.659c0-.49.448-.886 1-.886h8c.552 0 1 .397 1 .886v14.183c0 .49-.448.887-1 .887H3c-.552 0-1-.397-1-.887V2.66z" fill="#000"/><path d="M3 19.502h8c1.415-.001 2.636-.878 2.932-2.104A22.53 22.53 0 0021 18.615c.944.002 1.832.396 2.4 1.064l3.486 4.126c.69.803 1.761 1.276 2.9 1.278 2-.004 3.62-1.443 3.62-3.216a2.892 2.892 0 00-.181-1.017l-1.581-4.204c-.28-.737.018-1.55.733-2.001l2.14-1.348a3.336 3.336 0 013.207-.158l.011.005h.006l15.665 7.849c1.682.844 3.813.416 4.92-.99 1.107-1.405.826-3.326-.648-4.434l-3.127-2.356 1.657.084h.187c1.797-.006 3.316-1.181 3.566-2.758 0-.013 0-.028.005-.042.255-1.73-1.115-3.32-3.066-3.556l-.625-.077c.824-.963.959-2.258.349-3.338-.61-1.081-1.86-1.76-3.224-1.753H13.816C13.394.714 12.266.005 11 0H3C1.343 0 0 1.19 0 2.66v14.182c0 1.47 1.343 2.66 3 2.66zm53.649-.472c-.528.622-1.494.8-2.259.42L38.722 11.6l-4.081-2.044a6.622 6.622 0 00-2.956-.692H31c-.552 0-1 .397-1 .887s.448.886 1 .886h.685a4.4 4.4 0 011.968.46l.616.309a5.055 5.055 0 00-.915.443l-2.139 1.359c-1.43.903-2.025 2.53-1.464 4.005l1.58 4.202c.054.147.08.3.079.455 0 .621-.448 1.172-1.112 1.37-.664.196-1.396-.005-1.818-.501L25 18.615c-.946-1.113-2.427-1.77-4-1.773-.045 0-4.254-.023-7-1.386V3.546h22.427c1.424 0 2.8.449 3.886 1.266l16.069 12.107c.703.532.82 1.455.267 2.111zm1.022-9.795c.259.301.37.683.309 1.058v.04c-.137.711-.85 1.222-1.664 1.19l-4.288-.213-5.053-3.805 5.687.703.048.006 3.917.484c.415.047.792.24 1.044.537zM55 4.973c-.005.734-.639 1.345-1.464 1.41l-.706.053-8.7-1.076-2.409-1.814H53.4c.426 0 .835.15 1.135.418.3.268.468.631.465 1.009zM2 2.659c0-.49.448-.886 1-.886h8c.552 0 1 .397 1 .886v14.183c0 .49-.448.887-1 .887H3c-.552 0-1-.397-1-.887V2.66z" fill="#09F"/><path d="M6.999 8.864c1.657 0 3-1.19 3-2.66 0-1.468-1.343-2.66-3-2.66s-3 1.192-3 2.66c0 1.47 1.343 2.66 3 2.66zm0-3.546c.552 0 1 .397 1 .886 0 .49-.448.887-1 .887s-1-.397-1-.887.448-.886 1-.886z" fill="#000"/><path d="M6.999 8.864c1.657 0 3-1.19 3-2.66 0-1.468-1.343-2.66-3-2.66s-3 1.192-3 2.66c0 1.47 1.343 2.66 3 2.66zm0-3.546c.552 0 1 .397 1 .886 0 .49-.448.887-1 .887s-1-.397-1-.887.448-.886 1-.886z" fill="#09F"/><path d="M45 23.562c0-1.795-1.438-3.833-2.645-5.23A1.824 1.824 0 0041 17.754c-.528 0-1.026.213-1.355.578C38.438 19.73 37 21.767 37 23.562c-.108 2.058 1.679 3.808 4 3.918 2.32-.11 4.107-1.86 4-3.918zm-6 0c.239-1.433.933-2.777 2-3.874 1.067 1.097 1.76 2.441 2 3.874.103 1.079-.786 2.032-2 2.145-1.214-.113-2.103-1.066-2-2.145z" fill="#000"/><path d="M45 23.562c0-1.795-1.438-3.833-2.645-5.23A1.824 1.824 0 0041 17.754c-.528 0-1.026.213-1.355.578C38.438 19.73 37 21.767 37 23.562c-.108 2.058 1.679 3.808 4 3.918 2.32-.11 4.107-1.86 4-3.918zm-6 0c.239-1.433.933-2.777 2-3.874 1.067 1.097 1.76 2.441 2 3.874.103 1.079-.786 2.032-2 2.145-1.214-.113-2.103-1.066-2-2.145z" fill="#09F"/><path d="M33.646 28.086C32.439 29.48 31 31.518 31 33.313c-.108 2.058 1.679 3.807 4 3.917 2.32-.11 4.107-1.86 4-3.917 0-1.795-1.438-3.833-2.645-5.23A1.824 1.824 0 0035 27.506a1.82 1.82 0 00-1.354.58zM35 35.457c-1.214-.113-2.103-1.066-2-2.144.239-1.434.933-2.777 2-3.875 1.067 1.098 1.76 2.441 2 3.875.103 1.078-.786 2.031-2 2.144z" fill="#000"/><path d="M33.646 28.086C32.439 29.48 31 31.518 31 33.313c-.108 2.058 1.679 3.807 4 3.917 2.32-.11 4.107-1.86 4-3.917 0-1.795-1.438-3.833-2.645-5.23A1.824 1.824 0 0035 27.506a1.82 1.82 0 00-1.354.58zM35 35.457c-1.214-.113-2.103-1.066-2-2.144.239-1.434.933-2.777 2-3.875 1.067 1.098 1.76 2.441 2 3.875.103 1.078-.786 2.031-2 2.144z" fill="#09F"/><path d="M45 39.89c2.322-.11 4.108-1.86 4-3.918 0-1.794-1.437-3.832-2.644-5.23A1.824 1.824 0 0045 30.165c-.528 0-1.026.213-1.355.578C42.439 32.14 41 34.178 41 35.972c-.107 2.059 1.679 3.808 4 3.918zm0-7.792c1.068 1.098 1.761 2.441 2 3.874.104 1.079-.785 2.032-2 2.145-1.213-.113-2.102-1.066-2-2.145.24-1.433.934-2.776 2-3.874z" fill="#000"/><path d="M45 39.89c2.322-.11 4.108-1.86 4-3.918 0-1.794-1.437-3.832-2.644-5.23A1.824 1.824 0 0045 30.165c-.528 0-1.026.213-1.355.578C42.439 32.14 41 34.178 41 35.972c-.107 2.059 1.679 3.808 4 3.918zm0-7.792c1.068 1.098 1.761 2.441 2 3.874.104 1.079-.785 2.032-2 2.145-1.213-.113-2.102-1.066-2-2.145.24-1.433.934-2.776 2-3.874z" fill="#09F"/><path d="M58.249 44.277a4.826 4.826 0 01-1.919-.709c-2.246-1.36-5.204-1.36-7.45 0-1.6 1.003-3.74 1.003-5.34 0-2.25-1.36-5.21-1.36-7.459 0-1.604 1.004-3.747 1.004-5.351 0a6.788 6.788 0 00-3.73-1.02H2c-1.105 0-2 .794-2 1.773v7.091c0 .98.895 1.773 2 1.773h56c1.105 0 2-.793 2-1.773v-5.378c-.001-.893-.752-1.645-1.751-1.757zM58 51.412H2v-7.091h25c.96-.02 1.9.244 2.67.752 2.253 1.361 5.217 1.361 7.47 0 1.6-1.003 3.739-1.003 5.339 0 2.25 1.362 5.212 1.362 7.462 0 1.597-1.002 3.732-1.002 5.329 0a7.047 7.047 0 002.73.975v5.364z" fill="#000"/><path d="M58.249 44.277a4.826 4.826 0 01-1.919-.709c-2.246-1.36-5.204-1.36-7.45 0-1.6 1.003-3.74 1.003-5.34 0-2.25-1.36-5.21-1.36-7.459 0-1.604 1.004-3.747 1.004-5.351 0a6.788 6.788 0 00-3.73-1.02H2c-1.105 0-2 .794-2 1.773v7.091c0 .98.895 1.773 2 1.773h56c1.105 0 2-.793 2-1.773v-5.378c-.001-.893-.752-1.645-1.751-1.757zM58 51.412H2v-7.091h25c.96-.02 1.9.244 2.67.752 2.253 1.361 5.217 1.361 7.47 0 1.6-1.003 3.739-1.003 5.339 0 2.25 1.362 5.212 1.362 7.462 0 1.597-1.002 3.732-1.002 5.329 0a7.047 7.047 0 002.73.975v5.364z" fill="#09F"/><path d="M8.999 46.094h-4c-.552 0-1 .397-1 .886 0 .49.448.887 1 .887h4c.552 0 1-.397 1-.887s-.448-.886-1-.886z" fill="#000"/><path d="M8.999 46.094h-4c-.552 0-1 .397-1 .886 0 .49.448.887 1 .887h4c.552 0 1-.397 1-.887s-.448-.886-1-.886z" fill="#09F"/><path d="M18 47.867h-5c-.552 0-1 .397-1 .887s.448.887 1 .887h5c.552 0 1-.398 1-.887 0-.49-.448-.887-1-.887z" fill="#000"/><path d="M18 47.867h-5c-.552 0-1 .397-1 .887s.448.887 1 .887h5c.552 0 1-.398 1-.887 0-.49-.448-.887-1-.887z" fill="#09F"/><path d="M27 46.094h-5c-.552 0-1 .397-1 .886 0 .49.448.887 1 .887h5c.552 0 1-.397 1-.887s-.448-.886-1-.886z" fill="#000"/><path d="M27 46.094h-5c-.552 0-1 .397-1 .886 0 .49.448.887 1 .887h5c.552 0 1-.397 1-.887s-.448-.886-1-.886z" fill="#09F"/><path d="M37 47.867h-5c-.552 0-1 .397-1 .887s.448.887 1 .887h5c.552 0 1-.398 1-.887 0-.49-.448-.887-1-.887z" fill="#000"/><path d="M37 47.867h-5c-.552 0-1 .397-1 .887s.448.887 1 .887h5c.552 0 1-.398 1-.887 0-.49-.448-.887-1-.887z" fill="#09F"/><path d="M48.999 47.867h-5c-.552 0-1 .397-1 .887s.448.887 1 .887h5c.552 0 1-.398 1-.887 0-.49-.448-.887-1-.887z" fill="#000"/><path d="M48.999 47.867h-5c-.552 0-1 .397-1 .887s.448.887 1 .887h5c.552 0 1-.398 1-.887 0-.49-.448-.887-1-.887z" fill="#09F"/></g></svg>